<svg xmlns="http://www.w3.org/2000/svg" xmlns:xlink="http://www.w3.org/1999/xlink" width="500" zoomAndPan="magnify" viewBox="0 0 375 374.999991" height="500" preserveAspectRatio="xMidYMid meet" version="1.0"><defs><g/><clipPath id="2abcebc93b"><path d="M 18.121094 140.910156 L 356.371094 140.910156 L 356.371094 233.910156 L 18.121094 233.910156 Z M 18.121094 140.910156 " clip-rule="nonzero"/></clipPath><clipPath id="cefce25ac1"><path d="M 27.261719 149.667969 L 187.285156 149.667969 L 187.285156 225.332031 L 27.261719 225.332031 Z M 27.261719 149.667969 " clip-rule="nonzero"/></clipPath></defs><g clip-path="url(#2abcebc93b)"><path stroke-linecap="butt" transform="matrix(0.749844, 0, 0, 0.748585, 18.121728, 140.911222)" fill="none" stroke-linejoin="miter" d="M -0.000846096 -0.00142361 L 451.092939 -0.00142361 L 451.092939 124.232956 L -0.000846096 124.232956 Z M -0.000846096 -0.00142361 " stroke="#b4c7d1" stroke-width="6" stroke-opacity="1" stroke-miterlimit="4"/></g><g clip-path="url(#cefce25ac1)"><path fill="#b4c7d1" d="M 27.261719 149.667969 L 187.285156 149.667969 L 187.285156 225.332031 L 27.261719 225.332031 Z M 27.261719 149.667969 " fill-opacity="1" fill-rule="nonzero"/></g><g fill="#ffffff" fill-opacity="1"><g transform="translate(37.788766, 195.742)"><g><path d="M 2.636719 0 L 4.910156 0 L 4.910156 -6.488281 L 8.894531 -6.488281 L 13.3125 0 L 16.054688 0 L 11.503906 -6.722656 C 14.140625 -7.367188 15.769531 -9.359375 15.769531 -12.277344 C 15.769531 -15.871094 13.289062 -18.09375 9.539062 -18.09375 L 2.636719 -18.09375 Z M 4.910156 -8.660156 L 4.910156 -15.925781 L 9.28125 -15.925781 C 11.917969 -15.925781 13.441406 -14.578125 13.441406 -12.277344 C 13.441406 -9.976562 11.917969 -8.660156 9.28125 -8.660156 Z M 4.910156 -8.660156 "/></g></g></g><g fill="#ffffff" fill-opacity="1"><g transform="translate(57.355751, 195.742)"><g><path d="M 10.855469 0.335938 C 16.363281 0.335938 20.242188 -3.542969 20.242188 -9.046875 C 20.242188 -14.554688 16.363281 -18.429688 10.855469 -18.429688 C 5.351562 -18.429688 1.5 -14.554688 1.5 -9.046875 C 1.5 -3.542969 5.351562 0.335938 10.855469 0.335938 Z M 3.824219 -9.046875 C 3.824219 -13.261719 6.695312 -16.15625 10.855469 -16.15625 C 15.019531 -16.15625 17.890625 -13.261719 17.890625 -9.046875 C 17.890625 -4.835938 15.019531 -1.9375 10.855469 -1.9375 C 6.695312 -1.9375 3.824219 -4.835938 3.824219 -9.046875 Z M 3.824219 -9.046875 "/></g></g></g><g fill="#ffffff" fill-opacity="1"><g transform="translate(81.03243, 195.742)"><g><path d="M 2.636719 0 L 8.894531 0 C 14.449219 0 18.171875 -3.695312 18.171875 -9.046875 C 18.171875 -14.398438 14.449219 -18.09375 8.894531 -18.09375 L 2.636719 -18.09375 Z M 4.910156 -2.171875 L 4.910156 -15.925781 L 8.789062 -15.925781 C 13.003906 -15.925781 15.847656 -13.15625 15.847656 -9.046875 C 15.847656 -4.9375 13.027344 -2.171875 8.894531 -2.171875 Z M 4.910156 -2.171875 "/></g></g></g><g fill="#ffffff" fill-opacity="1"><g transform="translate(102.667174, 195.742)"><g><path d="M 2.636719 0 L 4.910156 0 L 4.910156 -6.488281 L 8.894531 -6.488281 L 13.3125 0 L 16.054688 0 L 11.503906 -6.722656 C 14.140625 -7.367188 15.769531 -9.359375 15.769531 -12.277344 C 15.769531 -15.871094 13.289062 -18.09375 9.539062 -18.09375 L 2.636719 -18.09375 Z M 4.910156 -8.660156 L 4.910156 -15.925781 L 9.28125 -15.925781 C 11.917969 -15.925781 13.441406 -14.578125 13.441406 -12.277344 C 13.441406 -9.976562 11.917969 -8.660156 9.28125 -8.660156 Z M 4.910156 -8.660156 "/></g></g></g><g fill="#ffffff" fill-opacity="1"><g transform="translate(122.234162, 195.742)"><g><path d="M 2.636719 0 L 4.910156 0 L 4.910156 -18.09375 L 2.636719 -18.09375 Z M 2.636719 0 "/></g></g></g><g fill="#ffffff" fill-opacity="1"><g transform="translate(131.746659, 195.742)"><g><path d="M 10.703125 0.335938 C 16.261719 0.335938 20.007812 -3.878906 19.90625 -9.824219 L 10.082031 -9.824219 L 10.082031 -7.652344 L 17.449219 -7.652344 C 16.984375 -4.238281 14.398438 -1.9375 10.753906 -1.9375 C 6.695312 -1.9375 3.824219 -4.859375 3.824219 -9.046875 C 3.824219 -13.234375 6.667969 -16.15625 10.726562 -16.15625 C 13.519531 -16.15625 15.742188 -14.785156 16.878906 -12.460938 L 19.363281 -12.460938 C 18.199219 -16.027344 14.785156 -18.429688 10.652344 -18.429688 C 5.351562 -18.429688 1.5 -14.476562 1.5 -9.046875 C 1.5 -3.59375 5.378906 0.335938 10.703125 0.335938 Z M 10.703125 0.335938 "/></g></g></g><g fill="#ffffff" fill-opacity="1"><g transform="translate(155.035622, 195.742)"><g><path d="M 10.855469 0.335938 C 16.363281 0.335938 20.242188 -3.542969 20.242188 -9.046875 C 20.242188 -14.554688 16.363281 -18.429688 10.855469 -18.429688 C 5.351562 -18.429688 1.5 -14.554688 1.5 -9.046875 C 1.5 -3.542969 5.351562 0.335938 10.855469 0.335938 Z M 3.824219 -9.046875 C 3.824219 -13.261719 6.695312 -16.15625 10.855469 -16.15625 C 15.019531 -16.15625 17.890625 -13.261719 17.890625 -9.046875 C 17.890625 -4.835938 15.019531 -1.9375 10.855469 -1.9375 C 6.695312 -1.9375 3.824219 -4.835938 3.824219 -9.046875 Z M 3.824219 -9.046875 "/></g></g></g><g fill="#b4c7d1" fill-opacity="1"><g transform="translate(198.859665, 199.4842)"><g><path d="M 2.6875 0 L 10.023438 0 L 10.023438 -7.226562 L 12.78125 -7.226562 L 16.414062 0 L 24.730469 0 L 20.042969 -8.570312 C 22.730469 -10.058594 24.257812 -12.746094 24.257812 -16.304688 C 24.257812 -21.933594 20.445312 -25.417969 14.269531 -25.417969 L 2.6875 -25.417969 Z M 9.875 -13.074219 L 9.875 -19.425781 L 13.289062 -19.425781 C 15.613281 -19.425781 16.886719 -18.300781 16.886719 -16.269531 C 16.886719 -14.234375 15.613281 -13.074219 13.289062 -13.074219 Z M 9.875 -13.074219 "/></g></g></g><g fill="#b4c7d1" fill-opacity="1"><g transform="translate(225.002905, 199.4842)"><g><path d="M 15.070312 0.542969 C 23.167969 0.542969 28.90625 -4.9375 28.90625 -12.710938 C 28.90625 -20.480469 23.167969 -25.964844 15.070312 -25.964844 C 6.972656 -25.964844 1.234375 -20.480469 1.234375 -12.710938 C 1.234375 -4.9375 6.972656 0.542969 15.070312 0.542969 Z M 8.679688 -12.710938 C 8.679688 -16.523438 11.328125 -19.171875 15.070312 -19.171875 C 18.847656 -19.171875 21.460938 -16.523438 21.460938 -12.710938 C 21.460938 -8.894531 18.847656 -6.246094 15.070312 -6.246094 C 11.328125 -6.246094 8.679688 -8.894531 8.679688 -12.710938 Z M 8.679688 -12.710938 "/></g></g></g><g fill="#b4c7d1" fill-opacity="1"><g transform="translate(255.176565, 199.4842)"><g><path d="M 2.6875 0 L 9.949219 0 L 9.949219 -12.890625 L 14.851562 -6.027344 L 19.609375 -6.027344 L 24.472656 -12.855469 L 24.472656 0 L 31.738281 0 L 31.738281 -25.417969 L 25.78125 -25.417969 L 17.210938 -13.328125 L 8.679688 -25.417969 L 2.6875 -25.417969 Z M 2.6875 0 "/></g></g></g><g fill="#b4c7d1" fill-opacity="1"><g transform="translate(289.598502, 199.4842)"><g><path d="M 0.179688 0 L 7.953125 0 L 9.332031 -3.59375 L 18.011719 -3.59375 L 19.390625 0 L 27.199219 0 L 17.320312 -25.417969 L 10.058594 -25.417969 Z M 10.855469 -8.96875 L 13.691406 -16.847656 L 16.523438 -8.96875 Z M 10.855469 -8.96875 "/></g></g></g><g fill="#b4c7d1" fill-opacity="1"><g transform="translate(316.976278, 199.4842)"><g><path d="M 2.6875 0 L 9.949219 0 L 9.949219 -12.964844 L 19.609375 0 L 25.5625 0 L 25.5625 -25.417969 L 18.335938 -25.417969 L 18.335938 -12.527344 L 8.679688 -25.417969 L 2.6875 -25.417969 Z M 2.6875 0 "/></g></g></g></svg>